HIERARCHY
ROOT Hips
{
	OFFSET -50.672638 -52.785297 87.293335
	CHANNELS 6 Xposition Yposition Zposition Zrotation Yrotation Xrotation
	JOINT Spine
	{
		OFFSET 0.000000 2.080109 8.814247
		CHANNELS 6 Xposition Yposition Zposition Zrotation Yrotation Xrotation
		JOINT Spine1
		{
			OFFSET 0.000000 0.000000 8.844139
			CHANNELS 6 Xposition Yposition Zposition Zrotation Yrotation Xrotation
			JOINT Spine2
			{
				OFFSET 0.000000 0.000000 11.682266
				CHANNELS 6 Xposition Yposition Zposition Zrotation Yrotation Xrotation
				JOINT Spine3
				{
					OFFSET 0.000000 0.000004 11.746689
					CHANNELS 6 Xposition Yposition Zposition Zrotation Yrotation Xrotation
					JOINT Neck
					{
						OFFSET 0.000000 0.000000 17.658264
						CHANNELS 6 Xposition Yposition Zposition Zrotation Yrotation Xrotation
						JOINT Neck1
						{
							OFFSET 0.000000 0.000000 5.101517
							CHANNELS 6 Xposition Yposition Zposition Zrotation Yrotation Xrotation
							JOINT Head
							{
								OFFSET 0.000000 0.000000 5.101517
								CHANNELS 6 Xposition Yposition Zposition Zrotation Yrotation Xrotation
								JOINT HeadEnd
								{
									OFFSET 0.000000 0.000000 11.655090
									CHANNELS 6 Xposition Yposition Zposition Zrotation Yrotation Xrotation
									End Site
									{
										OFFSET 0.000000 0.000000 0.100006
									}
								}
							}
						}
					}
					JOINT RightShoulder
					{
						OFFSET -2.625389 0.000000 11.175217
						CHANNELS 6 Xposition Yposition Zposition Zrotation Yrotation Xrotation
						JOINT RightArm
						{
							OFFSET 0.000000 0.000000 10.434708
							CHANNELS 6 Xposition Yposition Zposition Zrotation Yrotation Xrotation
							JOINT RightForeArm
							{
								OFFSET 0.000000 0.000004 29.628418
								CHANNELS 6 Xposition Yposition Zposition Zrotation Yrotation Xrotation
								JOINT RightHand
								{
									OFFSET 0.000000 0.000000 22.857605
									CHANNELS 6 Xposition Yposition Zposition Zrotation Yrotation Xrotation
									JOINT RightHandThumb1
									{
										OFFSET -2.867325 -2.944290 3.959564
										CHANNELS 6 Xposition Yposition Zposition Zrotation Yrotation Xrotation
										JOINT RightHandThumb2
										{
											OFFSET 0.000000 0.000000 3.350403
											CHANNELS 6 Xposition Yposition Zposition Zrotation Yrotation Xrotation
											JOINT RightHandThumb3
											{
												OFFSET 0.000000 0.000000 3.756516
												CHANNELS 6 Xposition Yposition Zposition Zrotation Yrotation Xrotation
												JOINT RightHandThumb4
												{
													OFFSET 0.000000 0.000000 3.147339
													CHANNELS 6 Xposition Yposition Zposition Zrotation Yrotation Xrotation
													End Site
													{
														OFFSET 0.000000 0.000000 0.100006
													}
												}
											}
										}
									}
									JOINT RightHandIndex1
									{
										OFFSET -0.086754 -2.345280 10.030899
										CHANNELS 6 Xposition Yposition Zposition Zrotation Yrotation Xrotation
										JOINT RightHandIndex2
										{
											OFFSET 0.000000 0.000000 4.061096
											CHANNELS 6 Xposition Yposition Zposition Zrotation Yrotation Xrotation
											JOINT RightHandIndex3
											{
												OFFSET 0.000000 0.000000 3.248871
												CHANNELS 6 Xposition Yposition Zposition Zrotation Yrotation Xrotation
												JOINT RightHandIndex4
												{
													OFFSET 0.000000 0.000000 2.639709
													CHANNELS 6 Xposition Yposition Zposition Zrotation Yrotation Xrotation
													End Site
													{
														OFFSET 0.000000 0.000000 0.100006
													}
												}
											}
										}
									}
									JOINT RightHandMiddle1
									{
										OFFSET 0.104103 -0.006767 9.502945
										CHANNELS 6 Xposition Yposition Zposition Zrotation Yrotation Xrotation
										JOINT RightHandMiddle2
										{
											OFFSET 0.000000 0.000000 4.568726
											CHANNELS 6 Xposition Yposition Zposition Zrotation Yrotation Xrotation
											JOINT RightHandMiddle3
											{
												OFFSET 0.000000 0.000000 3.654984
												CHANNELS 6 Xposition Yposition Zposition Zrotation Yrotation Xrotation
												JOINT RightHandMiddle4
												{
													OFFSET 0.000000 0.000000 2.741241
													CHANNELS 6 Xposition Yposition Zposition Zrotation Yrotation Xrotation
													End Site
													{
														OFFSET 0.000000 0.000000 0.100006
													}
												}
											}
										}
									}
									JOINT RightHandRing1
									{
										OFFSET 0.086754 2.267441 8.921707
										CHANNELS 6 Xposition Yposition Zposition Zrotation Yrotation Xrotation
										JOINT RightHandRing2
										{
											OFFSET 0.000000 0.000000 4.061096
											CHANNELS 6 Xposition Yposition Zposition Zrotation Yrotation Xrotation
											JOINT RightHandRing3
											{
												OFFSET 0.000000 0.000000 3.654984
												CHANNELS 6 Xposition Yposition Zposition Zrotation Yrotation Xrotation
												JOINT RightHandRing4
												{
													OFFSET 0.000000 0.000000 2.741241
													CHANNELS 6 Xposition Yposition Zposition Zrotation Yrotation Xrotation
													End Site
													{
														OFFSET 0.000000 0.000000 0.100006
													}
												}
											}
										}
									}
									JOINT RightHandPinky1
									{
										OFFSET -0.173504 4.467197 7.976990
										CHANNELS 6 Xposition Yposition Zposition Zrotation Yrotation Xrotation
										JOINT RightHandPinky2
										{
											OFFSET 0.000000 0.000000 3.350403
											CHANNELS 6 Xposition Yposition Zposition Zrotation Yrotation Xrotation
											JOINT RightHandPinky3
											{
												OFFSET 0.000000 0.000000 2.842758
												CHANNELS 6 Xposition Yposition Zposition Zrotation Yrotation Xrotation
												JOINT RightHandPinky4
												{
													OFFSET 0.000000 0.000000 2.639709
													CHANNELS 6 Xposition Yposition Zposition Zrotation Yrotation Xrotation
													End Site
													{
														OFFSET 0.000000 0.000000 0.100006
													}
												}
											}
										}
									}
									JOINT RightForeArmEnd
									{
										OFFSET 0.000000 0.000000 0.000000
										CHANNELS 6 Xposition Yposition Zposition Zrotation Yrotation Xrotation
										End Site
										{
											OFFSET 0.000000 0.000000 0.100006
										}
									}
								}
								JOINT RightArmEnd
								{
									OFFSET 0.000000 0.000000 0.000000
									CHANNELS 6 Xposition Yposition Zposition Zrotation Yrotation Xrotation
									End Site
									{
										OFFSET 0.000000 0.000000 0.100006
									}
								}
							}
						}
					}
					JOINT LeftShoulder
					{
						OFFSET 2.625389 0.000000 11.175217
						CHANNELS 6 Xposition Yposition Zposition Zrotation Yrotation Xrotation
						JOINT LeftArm
						{
							OFFSET 0.000000 0.000000 10.813629
							CHANNELS 6 Xposition Yposition Zposition Zrotation Yrotation Xrotation
							JOINT LeftForeArm
							{
								OFFSET 0.000000 0.000004 28.724777
								CHANNELS 6 Xposition Yposition Zposition Zrotation Yrotation Xrotation
								JOINT LeftHand
								{
									OFFSET 0.644382 0.328873 25.716171
									CHANNELS 6 Xposition Yposition Zposition Zrotation Yrotation Xrotation
									JOINT LeftHandThumb1
									{
										OFFSET 2.867321 -2.944290 3.959564
										CHANNELS 6 Xposition Yposition Zposition Zrotation Yrotation Xrotation
										JOINT LeftHandThumb2
										{
											OFFSET 0.000000 0.000000 3.350403
											CHANNELS 6 Xposition Yposition Zposition Zrotation Yrotation Xrotation
											JOINT LeftHandThumb3
											{
												OFFSET 0.000000 0.000000 3.756516
												CHANNELS 6 Xposition Yposition Zposition Zrotation Yrotation Xrotation
												JOINT LeftHandThumb4
												{
													OFFSET 0.000000 0.000000 3.100006
													CHANNELS 6 Xposition Yposition Zposition Zrotation Yrotation Xrotation
													End Site
													{
														OFFSET 0.000000 0.000000 0.100006
													}
												}
											}
										}
									}
									JOINT LeftHandIndex1
									{
										OFFSET 0.086754 -2.345280 10.030899
										CHANNELS 6 Xposition Yposition Zposition Zrotation Yrotation Xrotation
										JOINT LeftHandIndex2
										{
											OFFSET 0.000000 0.000000 4.061096
											CHANNELS 6 Xposition Yposition Zposition Zrotation Yrotation Xrotation
											JOINT LeftHandIndex3
											{
												OFFSET 0.000000 0.000000 3.248871
												CHANNELS 6 Xposition Yposition Zposition Zrotation Yrotation Xrotation
												JOINT LeftHandIndex4
												{
													OFFSET 0.000000 0.000000 2.639709
													CHANNELS 6 Xposition Yposition Zposition Zrotation Yrotation Xrotation
													End Site
													{
														OFFSET 0.000000 0.000000 0.100006
													}
												}
											}
										}
									}
									JOINT LeftHandMiddle1
									{
										OFFSET -0.104103 -0.006767 9.502945
										CHANNELS 6 Xposition Yposition Zposition Zrotation Yrotation Xrotation
										JOINT LeftHandMiddle2
										{
											OFFSET 0.000000 0.000000 4.568726
											CHANNELS 6 Xposition Yposition Zposition Zrotation Yrotation Xrotation
											JOINT LeftHandMiddle3
											{
												OFFSET 0.000000 0.000000 3.654984
												CHANNELS 6 Xposition Yposition Zposition Zrotation Yrotation Xrotation
												JOINT LeftHandMiddle4
												{
													OFFSET 0.000000 0.000000 2.741241
													CHANNELS 6 Xposition Yposition Zposition Zrotation Yrotation Xrotation
													End Site
													{
														OFFSET 0.000000 0.000000 0.100006
													}
												}
											}
										}
									}
									JOINT LeftHandRing1
									{
										OFFSET -0.086754 2.267441 8.921707
										CHANNELS 6 Xposition Yposition Zposition Zrotation Yrotation Xrotation
										JOINT LeftHandRing2
										{
											OFFSET 0.000000 0.000000 4.061096
											CHANNELS 6 Xposition Yposition Zposition Zrotation Yrotation Xrotation
											JOINT LeftHandRing3
											{
												OFFSET 0.000000 0.000000 3.654984
												CHANNELS 6 Xposition Yposition Zposition Zrotation Yrotation Xrotation
												JOINT LeftHandRing4
												{
													OFFSET 0.000000 0.000000 2.741241
													CHANNELS 6 Xposition Yposition Zposition Zrotation Yrotation Xrotation
													End Site
													{
														OFFSET 0.000000 0.000000 0.100006
													}
												}
											}
										}
									}
									JOINT LeftHandPinky1
									{
										OFFSET 0.173504 4.467197 7.976990
										CHANNELS 6 Xposition Yposition Zposition Zrotation Yrotation Xrotation
										JOINT LeftHandPinky2
										{
											OFFSET 0.000000 0.000000 3.350403
											CHANNELS 6 Xposition Yposition Zposition Zrotation Yrotation Xrotation
											JOINT LeftHandPinky3
											{
												OFFSET 0.000000 0.000000 2.842758
												CHANNELS 6 Xposition Yposition Zposition Zrotation Yrotation Xrotation
												JOINT LeftHandPinky4
												{
													OFFSET 0.000000 0.000000 2.639709
													CHANNELS 6 Xposition Yposition Zposition Zrotation Yrotation Xrotation
													End Site
													{
														OFFSET 0.000000 0.000000 0.100006
													}
												}
											}
										}
									}
									JOINT LeftForeArmEnd
									{
										OFFSET 0.000000 0.000000 0.000000
										CHANNELS 6 Xposition Yposition Zposition Zrotation Yrotation Xrotation
										End Site
										{
											OFFSET 0.000000 0.000000 0.100006
										}
									}
								}
								JOINT LeftArmEnd
								{
									OFFSET 0.000000 0.000000 0.000000
									CHANNELS 6 Xposition Yposition Zposition Zrotation Yrotation Xrotation
									End Site
									{
										OFFSET 0.000000 0.000000 0.100006
									}
								}
							}
						}
					}
				}
			}
		}
	}
	JOINT RightUpLeg
	{
		OFFSET -11.289944 0.000000 0.000000
		CHANNELS 6 Xposition Yposition Zposition Zrotation Yrotation Xrotation
		JOINT RightLeg
		{
			OFFSET 0.000000 -0.000004 -38.200329
			CHANNELS 6 Xposition Yposition Zposition Zrotation Yrotation Xrotation
			JOINT RightFoot
			{
				OFFSET 0.000000 -0.000004 -39.900856
				CHANNELS 6 Xposition Yposition Zposition Zrotation Yrotation Xrotation
				JOINT RightToeBase
				{
					OFFSET 0.000000 -15.261639 0.000001
					CHANNELS 6 Xposition Yposition Zposition Zrotation Yrotation Xrotation
					JOINT RightToeBaseEnd
					{
						OFFSET 0.000000 -7.370712 0.000001
						CHANNELS 6 Xposition Yposition Zposition Zrotation Yrotation Xrotation
						End Site
						{
							OFFSET 0.000000 0.000000 0.100000
						}
					}
				}
				JOINT RightLegEnd
				{
					OFFSET 0.000000 0.000000 0.000000
					CHANNELS 6 Xposition Yposition Zposition Zrotation Yrotation Xrotation
					End Site
					{
						OFFSET 0.000000 0.000000 0.100000
					}
				}
			}
			JOINT RightUpLegEnd
			{
				OFFSET 0.000000 0.000000 0.000000
				CHANNELS 6 Xposition Yposition Zposition Zrotation Yrotation Xrotation
				End Site
				{
					OFFSET 0.000000 0.000000 0.099998
				}
			}
		}
	}
	JOINT LeftUpLeg
	{
		OFFSET 11.315662 0.000000 0.000000
		CHANNELS 6 Xposition Yposition Zposition Zrotation Yrotation Xrotation
		JOINT LeftLeg
		{
			OFFSET 0.000000 -0.000004 -38.200329
			CHANNELS 6 Xposition Yposition Zposition Zrotation Yrotation Xrotation
			JOINT LeftFoot
			{
				OFFSET 0.000000 -0.000004 -39.900856
				CHANNELS 6 Xposition Yposition Zposition Zrotation Yrotation Xrotation
				JOINT LeftToeBase
				{
					OFFSET 0.000000 -15.261639 0.000001
					CHANNELS 6 Xposition Yposition Zposition Zrotation Yrotation Xrotation
					JOINT LeftToeBaseEnd
					{
						OFFSET 0.000000 -7.539993 0.000001
						CHANNELS 6 Xposition Yposition Zposition Zrotation Yrotation Xrotation
						End Site
						{
							OFFSET 0.000000 0.000000 0.100000
						}
					}
				}
				JOINT LeftLegEnd
				{
					OFFSET 0.000000 0.000000 0.000000
					CHANNELS 6 Xposition Yposition Zposition Zrotation Yrotation Xrotation
					End Site
					{
						OFFSET 0.000000 0.000000 0.100000
					}
				}
			}
			JOINT LeftUpLegEnd
			{
				OFFSET 0.000000 0.000000 0.000000
				CHANNELS 6 Xposition Yposition Zposition Zrotation Yrotation Xrotation
				End Site
				{
					OFFSET 0.000000 0.000000 0.099998
				}
			}
		}
	}
}
MOTION
Frames: 2
Frame Time: 0.016667
5.247849 98.498886 71.370926 6.660638 -7.107177 2.310284 0.000001 2.080118 8.814235 -0.873407 -2.631121 9.892678 0.000005 -0.000002 8.844132 -1.588948 -3.039187 23.938117 -0.000002 0.000017 11.682269 -3.668144 -1.173963 9.797170 -0.000003 0.000012 11.746698 -1.268761 1.996300 -1.536835 -0.000001 -0.000006 17.658283 -10.183616 -12.743324 -9.650031 0.000006 -0.000001 5.101543 -8.584975 4.320087 -22.138462 0.000000 -0.000006 5.101528 3.741534 -2.335748 -15.771602 0.000001 -0.000004 11.655076 0.000000 0.000001 -0.000000 -2.625414 -0.000008 11.175227 10.574327 -90.489734 -1.171885 -0.000004 -0.000009 10.434691 27.012681 -58.745139 -9.208715 0.000002 0.000015 29.628422 15.278577 -1.066247 110.370926 0.000021 -0.000025 22.857599 -4.117364 55.551981 37.221328 -2.867323 -2.944294 3.959528 31.533833 -21.063497 45.970824 -0.000017 0.000000 3.350374 -21.149589 10.702784 -36.709285 -0.000010 0.000000 3.756498 -13.957282 8.915270 -25.015672 -0.000008 -0.000008 3.147326 0.000001 0.000003 0.000000 -0.086738 -2.345278 10.030886 -22.507738 -44.704722 13.546003 0.000024 0.000002 4.061078 -1.003007 -32.545312 5.145800 0.000031 0.000004 3.248870 -1.503002 -32.545325 5.145823 0.000013 0.000004 2.639696 0.000001 0.000000 -0.000001 0.104099 -0.006780 9.502945 -15.491772 -45.578429 7.875146 -0.000013 0.000000 4.568712 -0.068063 -32.759332 1.932465 -0.000008 -0.000006 3.654970 -0.568059 -32.759319 1.932483 -0.000005 -0.000006 2.741225 0.000001 0.000001 0.000003 0.086775 2.267434 8.921697 -4.467190 -47.704377 -1.720180 0.000033 0.000006 4.061092 -0.278809 -33.964540 -2.361229 0.000015 0.000006 3.655000 0.721193 -33.964649 -2.361228 0.000012 0.000006 2.741225 -0.000001 -0.000002 -0.000001 -0.173511 4.467191 7.976996 7.804042 -45.514256 -13.525471 -0.000002 0.000004 3.350431 0.137448 -32.912294 -7.227484 0.000002 0.000004 2.842739 2.137461 -32.912428 -7.227517 -0.000003 0.000005 2.639710 0.000003 0.000001 0.000001 0.000010 -0.000001 -0.000015 -0.000001 -0.000001 -0.000001 0.000003 -0.000001 -0.000000 0.000001 -0.000000 -0.000000 2.625398 -0.000006 11.175228 -13.966245 85.957692 -0.983854 0.000003 -0.000002 10.813644 46.814448 42.200775 40.348233 -0.000012 -0.000028 28.724770 -17.207319 2.129033 89.436259 0.644375 0.328897 25.716169 33.979245 -40.866934 8.815212 2.867317 -2.944317 3.959569 -31.666967 16.919902 52.039788 0.000006 0.000018 3.350430 11.909746 -8.109642 -21.599408 0.000000 0.000003 3.756534 7.939283 -6.118414 -14.796799 0.000009 -0.000001 3.099990 0.000003 -0.000002 -0.000001 0.086763 -2.345284 10.030905 -5.629750 18.436252 0.280237 0.000009 0.000000 4.061133 0.294582 12.804959 -1.830521 0.000009 0.000000 3.248880 -0.205430 12.805103 -1.830533 0.000004 -0.000001 2.639676 0.000000 -0.000002 0.000002 -0.104109 -0.006774 9.502966 -0.456514 17.686348 -0.002760 0.000000 0.000001 4.568712 0.426640 12.536280 -0.667702 0.000003 -0.000003 3.655019 -0.073335 12.536272 -0.667695 -0.000005 0.000001 2.741238 0.000001 -0.000003 0.000001 -0.086760 2.267441 8.921708 7.735457 16.708215 0.864657 0.000005 -0.000000 4.061104 -0.923440 11.869660 0.736566 0.000005 0.000004 3.655014 0.076574 11.869634 0.736569 -0.000002 0.000004 2.741211 0.000001 0.000002 0.000002 0.173501 4.467197 7.977009 16.034091 14.493194 1.535800 0.000014 0.000000 3.350448 -1.824994 10.090151 1.982241 0.000004 -0.000000 2.842774 0.175028 10.089998 1.982255 -0.000003 -0.000000 2.639692 0.000000 -0.000000 0.000003 -0.000006 -0.000002 0.000017 -0.000001 0.000002 -0.000000 -0.000002 0.000008 0.000012 -0.000001 -0.000002 0.000002 -11.289949 0.000015 -0.000017 -7.242744 0.260430 -40.770379 -0.000002 0.000001 -38.200325 -0.043724 0.290818 81.442151 0.000002 0.000006 -39.900860 -23.541201 -2.659627 -12.137728 0.000004 -15.261634 -0.000004 -0.063073 -1.471309 -28.593677 -0.000000 -7.370698 -0.000001 0.000001 -0.000000 -0.000000 0.000000 0.000012 -0.000000 -0.000001 0.000001 0.000001 0.000000 0.000004 -0.000003 -0.000001 0.000000 -0.000001 11.315661 0.000018 -0.000009 -6.208220 -18.381936 -23.512291 0.000002 -0.000004 -38.200321 0.835518 -1.954174 66.844910 -0.000011 -0.000010 -39.900856 29.446759 8.018202 26.809456 -0.000010 -15.261641 0.000002 -1.873350 6.934290 -37.497499 0.000006 -7.540002 0.000003 0.000002 0.000001 0.000000 -0.000010 -0.000002 -0.000002 -0.000003 0.000002 0.000001 -0.000007 0.000001 0.000008 0.000000 -0.000001 -0.000002 
4.842010 98.074890 71.645416 6.577611 -7.282104 2.134477 0.000002 2.080112 8.814236 -0.914006 -2.541777 9.868753 -0.000004 0.000012 8.844135 -1.551320 -2.963466 23.958714 0.000004 0.000007 11.682261 -3.581914 -1.158060 9.786596 -0.000002 0.000025 11.746698 -1.238809 1.986399 -1.514104 -0.000002 0.000004 17.658270 -10.123634 -12.591794 -9.633474 0.000001 -0.000012 5.101515 -8.603360 4.310351 -22.108593 -0.000000 -0.000012 5.101531 3.778632 -2.344783 -15.840961 -0.000001 -0.000009 11.655075 0.000002 -0.000000 0.000000 -2.625394 0.000015 11.175223 10.414520 -90.532061 -1.034879 -0.000015 -0.000012 10.434690 26.371237 -58.533355 -8.961776 0.000008 -0.000031 29.628405 15.272576 -1.064987 110.156348 0.000006 -0.000014 22.857594 -5.378780 55.672599 36.124959 -2.867327 -2.944277 3.959543 31.522880 -20.877819 46.232311 -0.000017 0.000004 3.350408 -20.734115 10.640855 -36.042597 -0.000008 -0.000006 3.756497 -13.684871 8.816201 -24.564067 -0.000007 -0.000001 3.147325 0.000000 0.000001 -0.000001 -0.086754 -2.345287 10.030907 -21.800043 -43.476043 13.157084 0.000017 0.000001 4.061083 -0.909179 -31.647340 4.969282 0.000015 0.000003 3.248895 -1.409208 -31.647429 4.969302 0.000001 0.000009 2.639717 -0.000000 0.000007 -0.000001 0.104100 -0.006776 9.502951 -14.928825 -44.333487 7.556542 -0.000001 0.000005 4.568715 -0.032421 -31.851156 1.865804 0.000015 -0.000005 3.654982 -0.532453 -31.850924 1.865844 0.000006 0.000002 2.741243 -0.000001 0.000001 0.000000 0.086785 2.267443 8.921682 -4.113997 -46.326503 -1.929718 0.000009 0.000004 4.061097 -0.326195 -32.988451 -2.275334 0.000012 0.000008 3.654984 0.673895 -32.988369 -2.275450 0.000003 0.000005 2.741212 0.000001 -0.000001 -0.000002 -0.173512 4.467199 7.976984 7.843743 -44.041022 -13.491342 0.000012 -0.000003 3.350403 -0.008407 -31.922586 -6.955419 -0.000004 0.000004 2.842769 1.991551 -31.922511 -6.955362 -0.000003 0.000001 2.639709 0.000001 -0.000000 0.000000 0.000005 0.000003 -0.000018 0.000003 -0.000002 0.000000 0.000006 -0.000005 -0.000015 0.000001 0.000000 -0.000000 2.625391 0.000004 11.175216 -13.825776 85.930514 -0.971969 0.000010 -0.000017 10.813625 47.207354 42.665094 40.101396 -0.000006 -0.000007 28.724773 -17.344330 2.196931 88.448423 0.644390 0.328873 25.716145 33.723106 -39.955466 8.631742 2.867317 -2.944315 3.959571 -31.690729 16.746656 52.306794 -0.000010 0.000011 3.350416 11.527933 -7.943513 -20.956216 0.000001 -0.000010 3.756527 7.690611 -5.973169 -14.361082 0.000001 0.000008 3.100007 0.000002 0.000000 -0.000001 0.086759 -2.345283 10.030918 -5.788589 17.295817 0.088089 0.000005 -0.000001 4.061101 0.319116 12.031160 -1.716428 0.000002 0.000001 3.248875 -0.180889 12.031163 -1.716425 0.000005 -0.000001 2.639690 -0.000000 -0.000003 0.000001 -0.104107 -0.006770 9.502969 -0.641570 16.598283 -0.325926 -0.000003 -0.000004 4.568727 0.435413 11.778442 -0.626141 0.000013 0.000004 3.655019 -0.064576 11.778455 -0.626133 -0.000001 0.000001 2.741240 0.000001 -0.000001 0.000000 -0.086755 2.267446 8.921711 7.512663 15.708300 0.351145 0.000004 -0.000000 4.061127 -0.932783 11.133028 0.689644 0.000003 -0.000006 3.654998 0.067211 11.133158 0.689644 -0.000002 0.000001 2.741228 0.000001 0.000002 0.000000 0.173514 4.467198 7.977014 15.797744 13.648463 0.869641 -0.000003 -0.000001 3.350411 -1.847981 9.411938 1.846463 0.000010 -0.000000 2.842766 0.152011 9.411932 1.846457 -0.000012 0.000001 2.639709 -0.000000 -0.000003 -0.000003 0.000000 0.000000 -0.000018 -0.000000 -0.000002 0.000000 0.000006 -0.000001 -0.000003 0.000001 0.000001 0.000004 -11.289948 -0.000008 -0.000007 -7.063461 0.115205 -39.883612 -0.000001 -0.000015 -38.200329 -0.048299 0.297034 80.766625 -0.000001 0.000010 -39.900848 -23.803284 -2.493924 -12.195865 0.000003 -15.261650 -0.000002 -0.076451 -1.498166 -28.623547 0.000004 -7.370728 0.000000 0.000000 -0.000000 -0.000000 0.000005 -0.000006 -0.000005 0.000003 0.000000 0.000002 0.000000 0.000007 0.000008 0.000000 -0.000000 0.000003 11.315660 0.000004 0.000004 -7.482512 -18.236308 -24.206052 -0.000003 -0.000018 -38.200333 0.637105 -1.543832 67.571943 -0.000003 0.000006 -39.900864 27.798358 3.019614 30.139323 0.000011 -15.261651 0.000015 -2.349412 9.002832 -41.994779 0.000013 -7.539986 -0.000005 0.000000 0.000002 -0.000000 0.000013 0.000004 0.000005 -0.000000 0.000000 -0.000000 0.000003 0.000007 0.000007 -0.000001 0.000001 0.000001 
